<svg id="visual" viewBox="0 0 900 600" width="900" height="600" xmlns="http://www.w3.org/2000/svg" xmlns:xlink="http://www.w3.org/1999/xlink" version="1.1"><rect x="0" y="0" width="900" height="600" fill="#79d671"></rect><path d="M0 518L21.5 503.7C43 489.3 86 460.7 128.8 446C171.7 431.3 214.3 430.7 257.2 440.3C300 450 343 470 385.8 486.2C428.7 502.3 471.3 514.7 514.2 503.3C557 492 600 457 642.8 456.2C685.7 455.3 728.3 488.7 771.2 495.2C814 501.7 857 481.3 878.5 471.2L900 461L900 601L878.5 601C857 601 814 601 771.2 601C728.3 601 685.7 601 642.8 601C600 601 557 601 514.2 601C471.3 601 428.7 601 385.8 601C343 601 300 601 257.2 601C214.3 601 171.7 601 128.8 601C86 601 43 601 21.5 601L0 601Z" fill="#ffffff" stroke-linecap="round" stroke-linejoin="miter"></path></svg>